PathFileType	4	(x/y/z)	S09_PSF_T03
DataRate	CameraRate	NumFrames	NumMarkers	Units	OrigDataRate	OrigDataStartFrame	OrigNumFrames
240	240	4	51	mm	240	231	461
Frame#	Time	Sternum			R.Acromium			L.Acromium			Top.Head			R.ASIS			L.ASIS			R.PSIS			L.PSIS			R.Great.Tro			L.Great.Tro			R.Iliac.Crest			L.Iliac.Crest			V.Sacral			R.Thigh.Upper.Post			R.Thigh.Lower.Ant			R.Thigh.Lower.Post			R.Thigh.Upper.Ant			R.Knee.Lat			R.Knee.Med			R.Shank.Upper.Post			R.Shank.Lower.Ant			R.Shank.Lower.Post			R.Shank.Upper.Ant			R.Ankle.Lat			R.Ankle.Med			R.Heel.Upper			R.Heel.Med			R.Heel.Lat			R.Toe.Lat			R.Toe.Med			R.Toe.Tip			L.Thigh.Upper.Post			L.Thigh.Lower.Ant			L.Thigh.Lower.Post			L.Thigh.Upper.Ant			L.Knee.Lat			L.Knee.Med			L.Shank.Upper.Post			L.Shank.Lower.Ant			L.Shank.Lower.Post			L.Shank.Upper.Ant			L.Ankle.Lat			L.Ankle.Med			L.Heel.Upper			L.Heel.Med			L.Heel.Lat			L.Toe.Lat			L.Toe.Med			L.Toe.Tip			Cervical.Spine			Back			
		X1	Y1	Z1	X2	Y2	Z2	X3	Y3	Z3	X4	Y4	Z4	X5	Y5	Z5	X6	Y6	Z6	X7	Y7	Z7	X8	Y8	Z8	X9	Y9	Z9	X10	Y10	Z10	X11	Y11	Z11	X12	Y12	Z12	X13	Y13	Z13	X14	Y14	Z14	X15	Y15	Z15	X16	Y16	Z16	X17	Y17	Z17	X18	Y18	Z18	X19	Y19	Z19	X20	Y20	Z20	X21	Y21	Z21	X22	Y22	Z22	X23	Y23	Z23	X24	Y24	Z24	X25	Y25	Z25	X26	Y26	Z26	X27	Y27	Z27	X28	Y28	Z28	X29	Y29	Z29	X30	Y30	Z30	X31	Y31	Z31	X32	Y32	Z32	X33	Y33	Z33	X34	Y34	Z34	X35	Y35	Z35	X36	Y36	Z36	X37	Y37	Z37	X38	Y38	Z38	X39	Y39	Z39	X40	Y40	Z40	X41	Y41	Z41	X42	Y42	Z42	X43	Y43	Z43	X44	Y44	Z44	X45	Y45	Z45	X46	Y46	Z46	X47	Y47	Z47	X48	Y48	Z48	X49	Y49	Z49	X50	Y50	Z50	X51	Y51	Z51	

231	0.95833	-267.83	1202.7	302.29	-403.15	1446.9	458.83	-411.96	1444	145.67	-404.92	1749.8	291.84	-307.23	1033	409.81	-330.98	1031.8	165.75	-535.27	1055.6	351.72	-536.89	1052.4	262.09	-383.02	947.35	487.93	-401.98	940.94	101.4	-391.48	1113.1	461.66	-443.36	1123.7	139.06	-555.81	1018.6	305.87	-400.75	691.69	447.16	-339	591.14	392.89	-414.77	603.7	415.33	-332.02	675.4	427.68	-371.59	518.4	383.34	-390.06	519.92	262.54	-466.4	351.33	384.68	-406.37	285.36	364.72	-477.84	276.88	369.52	-401.3	357.52	381.75	-475.37	92.833	337.88	-452.9	107.74	248.96	-540.83	81.002	286.51	-532.17	48.886	257.56	-538.68	50.712	322.44	-378.38	39.624	373.03	-331.06	42.845	264.84	-283.02	56.443	311.48	-367.8	679.31	125.91	-261.19	614.94	107.04	-322.76	600.33	134.49	-304.03	692.7	93.501	-262.41	540.1	112.22	-218.07	541.89	246.21	-359.7	449.63	105.06	-347.54	339.68	108.54	-396.5	381.97	111.4	-310.65	408.37	103.28	-481.32	198.77	131.19	-448.04	180.83	217.82	-550.17	195.63	196.81	-545.2	166.96	227.83	-567.88	172.81	170.49	-435.18	83.671	86.305	-381.84	63.727	183.79	-340.91	57.159	117.69	-485.34	1494.9	315	-531.96	1228.7	302.97
232	0.9625	-263.01	1202.8	302.44	-397.69	1447	458.85	-406.81	1444.1	145.73	-399.39	1749.9	291.97	-303.05	1032.9	410.39	-325.91	1032.1	166.26	-530.83	1055.5	351.05	-532.2	1052.4	261.46	-379.22	947.19	487.97	-396.21	941.51	101.22	-387.5	1112.9	461.81	-437.82	1123.9	139.05	-551.17	1018.4	305.13	-398.48	691.86	447.07	-337.3	590.88	393.06	-413	603.92	415.39	-329.78	675.15	427.71	-370.47	518.27	383.51	-388.85	519.8	262.67	-465.84	351.51	384.71	-405.97	285.42	364.82	-477.44	277.09	369.52	-400.77	357.57	381.86	-475.25	92.916	337.81	-452.73	107.84	248.94	-540.77	81.096	286.46	-532.2	48.948	257.51	-538.63	50.823	322.39	-378.36	39.61	373.02	-330.99	42.805	264.88	-282.96	56.315	311.51	-360.99	679.87	125.71	-253.83	616.15	107.58	-315.48	601.17	134.65	-297.12	693.64	93.745	-254.5	541.02	112.97	-210.88	543.43	246.93	-350.33	448.45	105.63	-335.74	338.79	108.62	-385.61	379.97	111.64	-300.4	408.3	103.65	-466.08	194.77	130.58	-432.52	177.15	217.28	-535.08	189.32	196.14	-529.36	160.43	226.88	-552.01	166.21	169.55	-416.7	81.485	84.981	-363.09	62.191	182.44	-321.82	57.329	116.37	-480.01	1495.1	315.14	-527.01	1229	303.05
233	0.96667	-258.19	1202.8	302.6	-392.24	1447.1	458.87	-401.66	1444.1	145.79	-393.85	1749.9	292.1	-298.87	1032.7	410.96	-320.82	1032.3	166.74	-526.39	1055.4	350.38	-527.49	1052.3	260.82	-375.41	947	487.99	-390.43	942.02	101.04	-383.51	1112.7	461.96	-432.26	1124.2	139.03	-546.52	1018.3	304.37	-396.21	692.01	446.97	-335.6	590.61	393.22	-411.21	604.13	415.46	-327.55	674.89	427.74	-369.34	518.12	383.68	-387.61	519.68	262.8	-465.27	351.68	384.73	-405.57	285.48	364.92	-477.04	277.3	369.51	-400.23	357.61	381.98	-475.13	93.001	337.75	-452.54	107.94	248.91	-540.71	81.183	286.4	-532.21	49.004	257.45	-538.57	50.929	322.34	-378.34	39.594	373.01	-330.92	42.763	264.91	-282.9	56.186	311.54	-354.28	680.37	125.56	-246.64	617.26	108.15	-308.34	601.92	134.86	-290.31	694.5	94.036	-246.76	541.84	113.74	-203.83	544.87	247.67	-341.05	447.16	106.26	-323.97	337.86	108.7	-374.76	377.88	111.93	-290.24	408.16	104.05	-450.69	190.71	129.96	-416.87	173.44	216.74	-519.77	182.95	195.43	-513.28	153.9	225.92	-535.9	159.56	168.59	-398.09	79.299	83.733	-344.23	60.739	181.18	-302.66	57.556	115.17	-474.67	1495.2	315.27	-522.05	1229.3	303.11
234	0.97083	-253.36	1202.7	302.76	-386.78	1447.2	458.88	-396.5	1444.1	145.85	-388.32	1749.9	292.23	-294.68	1032.5	411.49	-315.71	1032.5	167.21	-521.94	1055.2	349.71	-522.76	1052.3	260.19	-371.6	946.77	488	-384.66	942.47	100.85	-379.51	1112.5	462.08	-426.68	1124.4	139.02	-541.88	1018.1	303.61	-393.93	692.14	446.88	-333.89	590.33	393.37	-409.42	604.32	415.52	-325.32	674.63	427.75	-368.2	517.97	383.84	-386.34	519.54	262.93	-464.7	351.85	384.75	-405.17	285.55	365.01	-476.64	277.51	369.49	-399.68	357.66	382.09	-475.02	93.087	337.68	-452.33	108.04	248.87	-540.65	81.262	286.33	-532.19	49.054	257.4	-538.52	51.031	322.29	-378.32	39.576	373	-330.85	42.719	264.94	-282.83	56.056	311.57	-347.69	680.81	125.46	-239.59	618.25	108.74	-301.35	602.58	135.11	-283.61	695.26	94.372	-239.21	542.57	114.53	-196.93	546.19	248.43	-331.87	445.76	106.94	-312.25	336.9	108.8	-363.94	375.72	112.25	-280.18	407.97	104.47	-435.15	186.61	129.36	-401.07	169.73	216.2	-504.22	176.56	194.7	-496.98	147.39	224.97	-519.56	152.88	167.62	-379.36	77.127	82.56	-325.26	59.38	180.01	-283.44	57.848	114.07	-469.32	1495.3	315.39	-517.09	1229.5	303.17
